<?xml version="1.0" standalone="no"?>
<!DOCTYPE svg PUBLIC "-//W3C//DTD SVG 20010904//EN"
 "http://www.w3.org/TR/2001/REC-SVG-20010904/DTD/svg10.dtd">
<svg version="1.0" xmlns="http://www.w3.org/2000/svg"
 width="512.000000pt" height="512.000000pt" viewBox="0 0 512.000000 512.000000"
 preserveAspectRatio="xMidYMid meet">
<metadata>
Created by potrace 1.11, written by Peter Selinger 2001-2013
</metadata>
<g transform="translate(0.000000,512.000000) scale(0.100000,-0.100000)"
fill="#000000" stroke="none">
<path d="M1600 3040 l0 -1440 318 0 317 0 0 480 c0 313 3 480 10 481 6 0 213
2 460 3 425 3 456 4 550 25 374 84 623 322 717 684 18 68 21 111 21 247 0 145
-3 177 -26 262 -82 310 -289 535 -584 636 -34 12 -74 24 -90 27 -15 3 -57 11
-93 19 -52 11 -217 14 -832 15 l-768 2 0 -1441z m1445 876 c155 -46 253 -142
291 -286 63 -241 -83 -468 -326 -510 -42 -7 -193 -10 -420 -8 l-355 3 0 400
c-1 220 2 405 6 410 5 6 140 10 376 9 319 -1 376 -3 428 -18z"/>
<path d="M320 1120 l0 -800 2240 0 2240 0 0 800 0 800 -320 0 -320 0 0 -480 0
-480 -1600 0 -1600 0 0 480 0 480 -320 0 -320 0 0 -800z"/>
</g>
</svg>
